<svg id="Account_creation_icon" data-name="Account creation icon" xmlns="http://www.w3.org/2000/svg" width="59.796" height="61.617" viewBox="0 0 59.796 61.617">
  <g id="Group_287" data-name="Group 287" transform="translate(0 6.188)">
    <path id="Path_60" data-name="Path 60" d="M39.045,223.577h.39a11.474,11.474,0,0,0,8.541-3.5c4.663-4.984,3.889-13.522,3.8-14.338-.3-6.118-3.356-9.044-5.875-10.411a14.025,14.025,0,0,0-6.517-1.617H39.18a14.108,14.108,0,0,0-6.519,1.571c-2.544,1.368-5.645,4.293-5.948,10.458-.084.816-.861,9.354,3.805,14.338A11.421,11.421,0,0,0,39.045,223.577Z" transform="translate(-14.376 -193.71)" fill="#917140"/>
    <path id="Path_61" data-name="Path 61" d="M71.853,219.184v-.033c0-.092-.014-.185-.014-.287-.07-2.274-.23-7.586-5.486-9.285-.038-.013-.087-.023-.122-.036a35.547,35.547,0,0,1-9.486-3.985,10.488,10.488,0,0,1-9.6,4.912h-.39a11.43,11.43,0,0,1-8.527-3.5,11.145,11.145,0,0,1-1.053-1.409,35.255,35.255,0,0,1-9.464,3.973c-.049.01-.084.023-.122.033-5.258,1.712-5.415,7.024-5.488,9.285a2.42,2.42,0,0,1-.011.287v.036a16.691,16.691,0,0,0,.617,5.2,1.5,1.5,0,0,0,.631.724c.363.228,9.074,5.487,23.65,5.487s23.285-5.269,23.647-5.487a1.578,1.578,0,0,0,.631-.724A17.569,17.569,0,0,0,71.853,219.184Z" transform="translate(-22.092 -175.154)" fill="#917140"/>
  </g>
  <g id="Group_288" data-name="Group 288" transform="translate(37.502)">
    <path id="Path_62" data-name="Path 62" d="M57.312,200.1H49.421a.428.428,0,0,1-.468-.436v-7.483a.855.855,0,0,0-.931-.88H46.168a.855.855,0,0,0-.928.88v7.483a.426.426,0,0,1-.463.436h-7.9a.857.857,0,0,0-.931.88v1.758a.857.857,0,0,0,.931.88h7.9a.429.429,0,0,1,.463.444v7.476a.855.855,0,0,0,.928.883h1.854a.856.856,0,0,0,.931-.883v-7.476a.431.431,0,0,1,.468-.444h7.892a.857.857,0,0,0,.931-.88v-1.758a.857.857,0,0,0-.931-.88Zm0,0" transform="translate(-35.949 -191.299)" fill="#917140"/>
  </g>
</svg>
