<svg xmlns="http://www.w3.org/2000/svg" width="60.848" height="54.862" viewBox="0 0 60.848 54.862">
  <g id="Birthday_Bonus" data-name="Birthday Bonus" transform="translate(0.5 0.77)">
    <path id="Union_1" data-name="Union 1" d="M5.42,53.592c-3,0-5.42-2.748-5.42-6.156V23.027c0-3.375,2.418-6.139,5.42-6.139h6.323V10.082h5.442v6.806h9.792V10.082h5.442v6.806h9.794V10.082h5.44v6.806h6.777c2.987,0,5.42,2.75,5.42,6.139V47.436c0,3.391-2.432,6.156-5.42,6.156Zm-2.7-6.156a2.907,2.907,0,0,0,2.7,3.094H54.429a2.931,2.931,0,0,0,2.7-3.094V33.807A19,19,0,0,1,54.455,35.7a6.96,6.96,0,0,1-3.4,1.059c-1.824,0-3.218-.878-5.595-3.056-.186-.164-.186-.164-.37-.345-2.221-2.03-3.217-2.7-4.291-2.7-1.13,0-2.2.644-4.222,2.4-.2.166-.2.166-.385.33-2.87,2.492-4.277,3.37-6.377,3.37-2,0-3.453-.878-5.924-3.073-.171-.148-.171-.148-.344-.314-2.312-2.045-3.387-2.718-4.715-2.718s-2.327.673-4.357,2.672a6.1,6.1,0,0,1-.505.492c-2.1,2.062-3.451,2.94-5.338,2.94a6.44,6.44,0,0,1-2.538-.581,14.351,14.351,0,0,1-3.371-2.207ZM44.9,8.167c-2.681-.029-4.384-2.979,0-8.167,4.457,5.166,2.786,8.167.034,8.167Zm-15.234,0c-2.681-.029-4.384-2.979,0-8.167,4.457,5.166,2.786,8.167.034,8.167Zm-15.235,0c-2.679-.029-4.384-2.979,0-8.167,4.458,5.166,2.786,8.167.034,8.167Z" fill="#917140" stroke="rgba(0,0,0,0)" stroke-width="1"/>
  </g>
</svg>
