<svg xmlns="http://www.w3.org/2000/svg" width="63.557" height="60.898" viewBox="0 0 63.557 60.898">
  <g id="Purchase_icon" data-name="Purchase icon" transform="translate(0.575 0.506)">
    <path id="Purchase_icon-2" data-name="Purchase icon" d="M39.526,54.2a5.5,5.5,0,1,1,5.492,5.692A5.6,5.6,0,0,1,39.526,54.2Zm-19.274,0a5.5,5.5,0,1,1,5.5,5.692A5.605,5.605,0,0,1,20.252,54.2Zm-2.168-8.261A3.109,3.109,0,0,1,15.078,43.4L7.656,6.075.924,3.047a1.61,1.61,0,0,1-.8-2.09A1.513,1.513,0,0,1,2.145.132L8.877,3.16a3.171,3.171,0,0,1,1.785,2.274l.963,4.854h47.78a3.016,3.016,0,0,1,2.377,1.17,3.244,3.244,0,0,1,.625,2.648l-4.29,21.576a3.109,3.109,0,0,1-3,2.539H17.18l.9,4.539H54.831a1.591,1.591,0,0,1,0,3.179ZM24.5,28.379a1.562,1.562,0,0,0,1.535,1.59H45.624a1.591,1.591,0,0,0,0-3.179H26.036A1.562,1.562,0,0,0,24.5,28.379Zm-1.2-8.253a1.561,1.561,0,0,0,1.534,1.59H46.821a1.589,1.589,0,0,0,0-3.176H24.839A1.561,1.561,0,0,0,23.305,20.125Z" fill="#917140" stroke="rgba(0,0,0,0)" stroke-width="1"/>
  </g>
</svg>
