<svg id="Refer_-_a_-_Friend" data-name="Refer - a - Friend" xmlns="http://www.w3.org/2000/svg" width="59.848" height="59.659" viewBox="0 0 59.848 59.659">
  <path id="RAF_icon" data-name="RAF icon" d="M901.023,436.764A11.863,11.863,0,1,1,888.88,448.72,12.051,12.051,0,0,1,901.023,436.764ZM866.7,461.641s-4.841-8.888,10.462-12.311l-1.113-5.8,10.253,6.633-6.949,10.5-.964-4.935S866.645,454.541,866.7,461.641Zm34.807,34.781a27.046,27.046,0,0,1-24.561-14.885,27.338,27.338,0,0,1,48.875-.4A27.042,27.042,0,0,1,901.512,496.422Z" transform="translate(-865.978 -436.764)" fill="#917140"/>
</svg>
