<svg id="Share_Photo_Earn_Points" data-name="Share Photo &amp; Earn Points" xmlns="http://www.w3.org/2000/svg" width="49.796" height="43.572" viewBox="0 0 49.796 43.572">
  <path id="Icon_awesome-camera" data-name="Icon awesome-camera" d="M49.8,13.143v28.01a4.67,4.67,0,0,1-4.668,4.668H4.668A4.67,4.67,0,0,1,0,41.153V13.143A4.67,4.67,0,0,1,4.668,8.475h8.559l1.2-3.2A4.662,4.662,0,0,1,18.79,2.25H31a4.662,4.662,0,0,1,4.367,3.025l1.206,3.2h8.559A4.67,4.67,0,0,1,49.8,13.143ZM36.569,27.148A11.671,11.671,0,1,0,24.9,38.819,11.68,11.68,0,0,0,36.569,27.148Zm-3.112,0A8.559,8.559,0,1,1,24.9,18.589,8.571,8.571,0,0,1,33.457,27.148Z" transform="translate(0 -2.25)" fill="#917140"/>
</svg>
