<svg id="Rewards_Icon_1" data-name="Rewards Icon_1" xmlns="http://www.w3.org/2000/svg" xmlns:xlink="http://www.w3.org/1999/xlink" width="101" height="101" viewBox="0 0 101 101">
  <defs>
    <clipPath id="clip-path">
      <rect id="Rectangle_146" data-name="Rectangle 146" width="59.125" height="33.108" fill="none"/>
    </clipPath>
  </defs>
  <circle id="Oval" cx="50.5" cy="50.5" r="50.5" fill="#fff"/>
  <g id="Group_437" data-name="Group 437" transform="translate(20.938 34)">
    <g id="Group_436" data-name="Group 436" clip-path="url(#clip-path)">
      <path id="Path_42" data-name="Path 42" d="M59.125,21.842a7.451,7.451,0,0,1-1.3,2.908,6.14,6.14,0,0,1-4.732,2.382c-.115,0-.229.015-.343.025a.74.74,0,0,0-.125.06c.274.738.559,1.483.829,2.233a2.551,2.551,0,0,1-.893,3.166c-.016.011-.03.024-.046.034a4.187,4.187,0,0,1-4.875-.807c-1.1-1.438-2.19-2.877-3.267-4.33a.841.841,0,0,0-.762-.385q-14.055.013-28.109.022a1.017,1.017,0,0,0-.7.351q-1.652,2.114-3.243,4.276A2.812,2.812,0,0,1,9,33.053c-.307-.017-.616,0-.923,0a2.514,2.514,0,0,1-2.437-3.458c.268-.8.574-1.581.868-2.384-.637-.091-1.232-.127-1.8-.265A6.081,6.081,0,0,1,.019,21.1c-.029-3-.02-6,0-9.006a2.943,2.943,0,0,1,3.013-3.05c.342-.013.684,0,1.094,0,0-1.092-.026-2.127.008-3.161a11.213,11.213,0,0,1,.22-2.513A4.481,4.481,0,0,1,8.519.036C9.536-.022,10.558,0,11.577.018a.845.845,0,0,1,.907.842.848.848,0,0,1-.886.872c-.884.028-1.77,0-2.655.013A2.9,2.9,0,0,0,5.866,4.708c-.042,1.419-.008,2.84-.008,4.333H6.927c2.043,0,3,.741,3.516,2.752h.611c3.983,0,7.965.02,11.948-.008,2-.014,3.98-.039,5.658,1.559.02-.326.04-.506.04-.685q0-3.781,0-7.563a3,3,0,0,0-3.344-3.351q-4.848,0-9.7,0c-.173,0-.347.01-.519-.006a.9.9,0,0,1-.9-.873.858.858,0,0,1,.914-.846c3.655-.006,7.311-.032,10.966.023a4.546,4.546,0,0,1,3.535,2.031,2.288,2.288,0,0,1,.253-.5A4.513,4.513,0,0,1,33.373.015C38.991.009,44.61,0,50.227.018a4.654,4.654,0,0,1,4.783,4.9c.018,1.344,0,2.689,0,4.073a2.99,2.99,0,0,0,.474.051,3.214,3.214,0,0,1,3.638,2.413Zm-28.61-3.22h.608q4.877,0,9.754,0a2.55,2.55,0,0,1,.739.077.692.692,0,0,1,.54.881,1.9,1.9,0,0,1-.68.738c-.11.086-.335.032-.508.032q-15.525,0-31.05,0c-.993,0-1.246-.262-1.247-1.278,0-2.29,0-4.579,0-6.869a1.263,1.263,0,0,0-1.418-1.43q-2.049-.022-4.1,0a1.264,1.264,0,0,0-1.409,1.441c-.006,2.886-.031,5.773.019,8.658a5.114,5.114,0,0,0,.463,2.053A4.325,4.325,0,0,0,6.5,25.4q14.169,0,28.337,0,8.917,0,17.833,0a4.423,4.423,0,0,0,4.722-4.733q0-4.185,0-8.37c0-1.058-.453-1.517-1.5-1.524-1.289-.008-2.578-.006-3.867,0-1.121,0-1.556.449-1.557,1.585,0,2.29,0,4.579,0,6.869,0,.819-.3,1.121-1.109,1.125q-2.164.01-4.329,0c-.684,0-1.061-.322-1.057-.866s.385-.851,1.075-.862c.673-.01,1.347,0,2.02,0H48.7v-5.1h-.587q-6.752,0-13.5,0a4.038,4.038,0,0,0-4.1,5.1m18.2-6.83a2.683,2.683,0,0,1,1.593-2.348,17.918,17.918,0,0,1,2.919-.571c0-1.526,0-3.154,0-4.782a.677.677,0,0,0-.047-.165,2.932,2.932,0,0,0-3.024-2.181q-8.164-.008-16.327,0c-2.229,0-3.386,1.144-3.39,3.36q-.007,3.78,0,7.559c0,.18.02.36.033.569,2.55-1.44,2.55-1.44,5.6-1.44H48.714ZM28.747,18.6a14.019,14.019,0,0,0-.188-2.115,3.792,3.792,0,0,0-3.9-2.956q-6.9-.015-13.8,0a3.938,3.938,0,0,0-.413.04V18.6ZM12.888,27.138c-1.5,0-2.877-.006-4.251.01a.442.442,0,0,0-.322.236c-.374.965-.747,1.932-1.075,2.914a.737.737,0,0,0,.7,1.008,6.246,6.246,0,0,0,1.208,0,1.232,1.232,0,0,0,.769-.289c.988-1.238,1.932-2.512,2.968-3.878m33.363,0c.8,1.061,1.6,1.972,2.229,2.992a2.355,2.355,0,0,0,2.545,1.2c.747-.086,1.073-.484.822-1.2-.309-.887-.641-1.766-.983-2.641-.053-.135-.206-.328-.315-.33-1.391-.022-2.783-.015-4.3-.015" transform="translate(0 0)"/>
    </g>
  </g>
</svg>
