<svg id="Rewards_Icon_2" data-name="Rewards Icon_2" xmlns="http://www.w3.org/2000/svg" xmlns:xlink="http://www.w3.org/1999/xlink" width="101" height="101" viewBox="0 0 101 101">
  <defs>
    <clipPath id="clip-path">
      <rect id="Rectangle_145" data-name="Rectangle 145" width="51.431" height="47.151" fill="none"/>
    </clipPath>
  </defs>
  <circle id="Oval" cx="50.5" cy="50.5" r="50.5" fill="#fff"/>
  <g id="Group_924" data-name="Group 924" transform="translate(24.569 27)">
    <g id="Group_435" data-name="Group 435" clip-path="url(#clip-path)">
      <path id="Path_32" data-name="Path 32" d="M50.421,172.37a3.508,3.508,0,0,0-4.142-.5q-3.7,1.623-7.392,3.253l-4.085,1.8c-.332.146-.666.289-1.012.437l-.417.179-.061-.336a5.017,5.017,0,0,0-4.267-4.15l-.809-.1c-1.723-.217-3.5-.441-5.263-.58a14.464,14.464,0,0,1-7.037-2.193,13.981,13.981,0,0,0-6.362-2.092c-.516-.05-1.026-.079-1.565-.109-.226-.013-.454-.025-.686-.04v-.149c0-.145,0-.28,0-.416a2.41,2.41,0,0,0-2.585-2.6c-.46,0-.919,0-1.379,0H2.828A2.484,2.484,0,0,0,0,167.6q0,6.048,0,12.1v3.262c0,.113,0,.23.005.346a2.378,2.378,0,0,0,2.479,2.358c.812.009,1.675.015,2.526,0a2.323,2.323,0,0,0,2.2-1.665c.037-.116.071-.233.106-.359l.031-.107q1.134.423,2.259.85c1.89.715,3.845,1.453,5.782,2.121a11.047,11.047,0,0,0,3.344.682c1.869.037,3.756.049,5.631.049,1.472,0,2.936-.007,4.379-.014l1.992-.009A9.091,9.091,0,0,0,35.207,186q2.1-1.186,4.2-2.384c3.363-1.915,6.84-3.9,10.305-5.759a3.478,3.478,0,0,0,1.683-2.57,3.332,3.332,0,0,0-.973-2.913m-43.1,4.357,0-.984c0-.917-.479-1.123-.879-1.134H6.4a.837.837,0,0,0-.606.227,1.242,1.242,0,0,0-.309.911q0,2.072,0,4.144,0,1.546,0,3.091c0,.719-.127.846-.842.849-.612,0-1.323.005-2.018,0-.626-.005-.788-.17-.79-.8q-.006-2.442,0-4.884v-4.217q0-3.161,0-6.322c0-.874.123-1,1.006-1l.5,0c.462,0,.939,0,1.408,0,.57.011.736.176.739.738,0,.444,0,.888,0,1.332,0,.888-.008,1.806.027,2.708a1.41,1.41,0,0,0,.509.974.731.731,0,0,0,.753.07.99.99,0,0,0,.539-.84c.015-.213.012-.429.01-.638,0-.088,0-.176,0-.264,0-.2,0-.408,0-.625v-.228a11.562,11.562,0,0,1,4.311.512l.116.038a14.037,14.037,0,0,1,3.3,1.409,16.092,16.092,0,0,0,7.81,2.406c1.641.131,3.3.341,4.913.543l1.042.13a3.107,3.107,0,0,1,2.08,1.23,2.669,2.669,0,0,1,.558,1.953l-1.006,0c-.78,0-1.587-.006-2.383.005a42.3,42.3,0,0,1-7.918-.509,1.051,1.051,0,0,0-.813.152.9.9,0,0,0-.362.612c-.081.521.28.933.92,1.048a43.43,43.43,0,0,0,6.82.5c.7.014,1.42.029,2.13.055a14.7,14.7,0,0,0,7.2-1.5c2.61-1.266,5.324-2.432,7.949-3.558q1.373-.589,2.744-1.184A4.474,4.474,0,0,1,48.1,173.3a1.382,1.382,0,0,1,1.468,1.132,1.486,1.486,0,0,1-.693,1.742l-1.14.645c-4.421,2.5-8.993,5.084-13.495,7.617a7.2,7.2,0,0,1-3.555.939l-2.291.007c-3.109.011-6.324.022-9.485-.029a9.229,9.229,0,0,1-2.866-.565c-1.649-.577-3.313-1.2-4.922-1.8-1.088-.408-2.213-.83-3.324-1.234a.629.629,0,0,1-.487-.734c.021-1.43.016-2.883.012-4.289" transform="translate(0 -140.078)" fill="#231f20"/>
      <path id="Path_33" data-name="Path 33" d="M102.934,41.231c.326.06.657.107.977.151.149.021.3.041.445.064l.022,0h1.56l.022,0c.162-.024.325-.046.488-.068.352-.047.716-.1,1.073-.169a11.862,11.862,0,0,0,8.187-17,.807.807,0,0,1-.082-.35c0-1.708-.005-3.446-.006-5.126q0-1.157,0-2.314a1.513,1.513,0,0,0-.047-.432.706.706,0,0,0-.7-.533c-.027,0-.055,0-.083,0a.714.714,0,0,0-.678.656,1.963,1.963,0,0,0-.011.277v.059q0,2.51,0,5.02v.369a11.613,11.613,0,0,0-8.938-4.073h-.017a11.6,11.6,0,0,0-8.925,4.071v-.517q0-2.435,0-4.87V16.4a1.988,1.988,0,0,0-.012-.28.713.713,0,0,0-.679-.655c-.027,0-.054,0-.08,0a.711.711,0,0,0-.716.568,1.542,1.542,0,0,0-.035.394v.028q0,1.078,0,2.155c0,1.723,0,3.505,0,5.258a.773.773,0,0,1-.07.329,11.844,11.844,0,0,0,8.313,17.043m2.219-1.158h0v-.15a10.324,10.324,0,0,1-.016-20.647h.03a10.324,10.324,0,0,1-.006,20.647l0,.15h0" transform="translate(-79.33 -13.139)" fill="#231f20"/>
      <path id="Path_34" data-name="Path 34" d="M145.711,2.829c0,.356,0,.713,0,1.069a.773.773,0,0,0,.748.856h.01a.783.783,0,0,0,.762-.846c0-.95,0-1.949,0-3.055A.781.781,0,0,0,146.477,0h-.011a.762.762,0,0,0-.755.842c0,.36,0,.72,0,1.08v.908Z" transform="translate(-123.872)" fill="#231f20"/>
      <path id="Path_35" data-name="Path 35" d="M189.541,4.756h.015a.778.778,0,0,0,.754-.872c0-.355,0-.71,0-1.065v-.9c0-.353,0-.706,0-1.059A.764.764,0,0,0,189.564,0h-.012a.778.778,0,0,0-.763.869c0,.918,0,1.9,0,3a.792.792,0,0,0,.752.885" transform="translate(-160.492 -0.002)" fill="#231f20"/>
      <path id="Path_36" data-name="Path 36" d="M167.994,4.286H168a.765.765,0,0,0,.753-.846c0-.3,0-.6,0-.89q0-.191,0-.382t0-.391c0-.3,0-.6,0-.908A.781.781,0,0,0,168,0h-.011a.772.772,0,0,0-.752.852c0,.937,0,1.786,0,2.594a.754.754,0,0,0,.759.837" transform="translate(-142.167 -0.002)" fill="#231f20"/>
      <path id="Path_37" data-name="Path 37" d="M125.62,19.276a.766.766,0,0,0-.756-.807h-.022a.767.767,0,0,0-.741.8c-.006.585-.006,1.176,0,1.757a.752.752,0,0,0,.759.8h.018a.747.747,0,0,0,.741-.793c0-.2,0-.409,0-.607q0-.131,0-.261t0-.27c0-.2,0-.415,0-.625" transform="translate(-105.498 -15.701)" fill="#231f20"/>
      <path id="Path_38" data-name="Path 38" d="M210.395,21.032a.747.747,0,0,0,.757.8h.015a.751.751,0,0,0,.746-.794c.006-.559.006-1.134,0-1.758a.774.774,0,0,0-.758-.811h-.018a.768.768,0,0,0-.742.8c0,.2,0,.406,0,.6,0,.088,0,.176,0,.265s0,.177,0,.265c0,.206,0,.419,0,.629" transform="translate(-178.859 -15.703)" fill="#231f20"/>
      <path id="Path_39" data-name="Path 39" d="M210.4,1.722a.743.743,0,0,0,.714.717h.042a.738.738,0,0,0,.753-.7,10.032,10.032,0,0,0,0-1.03A.751.751,0,0,0,211.151,0h-.026a.756.756,0,0,0-.731.74c-.006.117,0,.231,0,.342,0,.045,0,.09,0,.134s0,.1,0,.149c0,.115,0,.234,0,.356" transform="translate(-178.857 -0.001)" fill="#231f20"/>
      <path id="Path_40" data-name="Path 40" d="M124.849,2.44h.016a.744.744,0,0,0,.738-.7c.01-.126.007-.247.005-.365V1.232c0-.049,0-.1,0-.146,0-.116,0-.235,0-.358A.759.759,0,0,0,124.855,0h-.006a.744.744,0,0,0-.752.7,9.862,9.862,0,0,0,0,1.059.741.741,0,0,0,.752.685" transform="translate(-105.485)" fill="#231f20"/>
      <path id="Path_41" data-name="Path 41" d="M131.608,71.514c.454.262.92.515,1.371.76.286.155.572.311.856.469a1.886,1.886,0,0,0,.918.259,1.607,1.607,0,0,0,.928-.3,1.72,1.72,0,0,0,.734-1.783c-.128-.827-.277-1.718-.455-2.724a.485.485,0,0,1,.145-.493c.645-.637,1.292-1.293,1.924-1.951a1.712,1.712,0,0,0,.411-1.828,1.667,1.667,0,0,0-1.4-1.166l-.561-.089c-.675-.107-1.373-.218-2.063-.311a.412.412,0,0,1-.371-.287c-.179-.39-.364-.777-.549-1.164-.193-.4-.391-.818-.58-1.229a1.709,1.709,0,0,0-3.212.01c-.19.415-.39.834-.584,1.24-.183.384-.367.767-.545,1.154a.391.391,0,0,1-.347.277c-.405.05-.813.115-1.208.178l-.484.076-.291.044c-.235.035-.469.07-.7.111A1.663,1.663,0,0,0,124.2,63.9a1.689,1.689,0,0,0,.358,1.788c.714.763,1.273,1.332,1.815,1.844a.7.7,0,0,1,.279.794,2.378,2.378,0,0,0-.075.395c-.006.05-.013.1-.021.149l-.356,2.175,0,.044a1.869,1.869,0,0,0,.843,1.657,1.694,1.694,0,0,0,1.689.028c.638-.336,1.478-.784,2.308-1.267a.485.485,0,0,1,.575,0m-3.545-2.439c.015-.094.032-.188.049-.282.027-.156.055-.313.078-.47a1.836,1.836,0,0,0-.531-1.639q-.468-.471-.933-.945t-.949-.962c-.172-.173-.185-.256-.148-.369s.085-.14.354-.179l.095-.014c.82-.12,1.668-.243,2.5-.376a1.728,1.728,0,0,0,1.332-1.022q.247-.522.495-1.044.35-.736.7-1.473c.106-.226.159-.226.216-.225s.107,0,.216.234c.168.36.339.719.51,1.077.217.454.433.908.643,1.364a1.84,1.84,0,0,0,1.518,1.111c.554.072,1.117.16,1.661.245.282.044.564.088.846.13.232.035.268.094.293.175s.036.173-.123.333q-.335.338-.667.679c-.39.4-.792.808-1.194,1.2a1.911,1.911,0,0,0-.56,1.82c.112.615.214,1.243.312,1.851q.066.4.132.81c.037.224-.025.291-.091.34-.045.033-.074.055-.281-.06q-.519-.286-1.039-.569-.654-.357-1.307-.717a1.784,1.784,0,0,0-.872-.24,1.808,1.808,0,0,0-.884.245c-.866.481-1.733.951-2.393,1.306a.243.243,0,0,1-.23.029.3.3,0,0,1-.1-.255Z" transform="translate(-105.486 -49.778)" fill="#231f20"/>
    </g>
  </g>
</svg>
