<svg id="Rewards_Icon_6" data-name="Rewards Icon_6" xmlns="http://www.w3.org/2000/svg" xmlns:xlink="http://www.w3.org/1999/xlink" width="101" height="101" viewBox="0 0 101 101">
  <defs>
    <clipPath id="clip-path">
      <rect id="Rectangle_145" data-name="Rectangle 145" width="69.117" height="55.171" fill="none"/>
    </clipPath>
  </defs>
  <circle id="Oval" cx="50.5" cy="50.5" r="50.5" fill="#fff"/>
  <g id="Group_952" data-name="Group 952" transform="translate(15.941 17.73)">
    <g id="Group_432" data-name="Group 432" clip-path="url(#clip-path)">
      <path id="Path_32" data-name="Path 32" d="M0,61.141c.061-.163.127-.324.181-.49a3.708,3.708,0,0,1,3.482-2.6c1.406-.02,2.813-.011,4.219,0a1.075,1.075,0,1,1-.033,2.132c-1.3.006-2.6,0-3.9,0a1.614,1.614,0,1,0,0,3.2q23.39,0,46.78,0a1.614,1.614,0,1,0,0-3.2H18.1a4.331,4.331,0,0,1-.639-.018,1.062,1.062,0,0,1,.02-2.1,2.611,2.611,0,0,1,.373-.013q16.5,0,33,0a3.734,3.734,0,0,1,.956,7.365c-.173.04-.347.076-.575.125.057,1.193.109,2.381.171,3.568q.3,5.732.6,11.463.25,4.8.5,9.6A7.049,7.049,0,0,1,52.5,91.6a3.176,3.176,0,0,1-3.228,2.753,3.236,3.236,0,0,1-3.113-2.906c-.624-4.995-1.229-9.992-1.846-14.987-.272-2.206-.552-4.411-.831-6.641H11.207c-.137,1.076-.279,2.161-.413,3.248Q10,79.423,9.22,85.778C9,87.6,8.758,89.413,8.552,91.233A3.275,3.275,0,0,1,5.1,94.35a3.223,3.223,0,0,1-2.948-3.54c.166-3.68.371-7.359.562-11.038q.3-5.785.6-11.57c.045-.869.088-1.739.134-2.642-.121-.036-.215-.072-.314-.093A3.7,3.7,0,0,1,.084,62.552.472.472,0,0,0,0,62.423V61.141m45.111,4.4c.434,3.527.862,7,1.291,10.478q.722,5.849,1.448,11.7c.144,1.165.278,2.33.437,3.493a1.064,1.064,0,1,0,2.122-.16c0-.213-.01-.427-.021-.64q-.583-11.3-1.167-22.6c-.039-.756-.091-1.511-.137-2.27Zm-39.52.011c-.12,2.311-.238,4.582-.356,6.853q-.3,5.783-.6,11.565c-.12,2.327-.246,4.655-.352,6.983a1.11,1.11,0,0,0,.958,1.263,1.11,1.11,0,0,0,1.169-1.068Q6.95,86.8,7.48,82.463q.669-5.4,1.34-10.8c.251-2.028.5-4.056.749-6.116Zm37.363,0H11.727l-.248,2.085H43.206l-.254-2.085" transform="translate(0.001 -39.188)"/>
      <path id="Path_33" data-name="Path 33" d="M58.622,60.215a1.064,1.064,0,1,1,1.066-1.036,1.076,1.076,0,0,1-1.066,1.036" transform="translate(-45.807 -39.227)"/>
      <path id="Path_34" data-name="Path 34" d="M246.618,10.316V8.045c5.412.133,8.129-2.5,8.031-8.045h2.206c-.106,5.432,2.516,8.159,8.01,8.033V10.3a7.388,7.388,0,0,0-6.048,1.915c-1.684,1.678-2.041,3.786-1.911,6.073h-2.289c.112-2.261-.218-4.38-1.9-6.057a7.287,7.287,0,0,0-6.1-1.91m9.138-4.341c-.495.6-.926,1.2-1.443,1.714-.533.531-1.151.977-1.645,1.388l3.085,3.091,3.108-3.089c-.493-.406-1.1-.834-1.617-1.35-.534-.532-.982-1.15-1.487-1.754" transform="translate(-199.006 2.705)"/>
    </g>
  </g>
</svg>
