<svg id="Rewards_Icon_3" data-name="Rewards Icon_3" xmlns="http://www.w3.org/2000/svg" width="101" height="101" viewBox="0 0 101 101">
  <circle id="Oval" cx="50.5" cy="50.5" r="50.5" fill="#fff"/>
  <g id="Group_926" data-name="Group 926" transform="translate(17056.783 8776.988)">
    <path id="Path_16" data-name="Path 16" d="M144.022,127.924v-6.557c-1.656.12-3.286.327-4.917.333a10.366,10.366,0,0,1-10.239-7.106,20.534,20.534,0,0,1-1.358-6.047c-.067-.841.161-1.181.983-1.406a18.73,18.73,0,0,1,8.075-.56,10.024,10.024,0,0,1,7.886,6.3c.207.459.385.925.621,1.507.1-.26.161-.428.226-.593a11.2,11.2,0,0,1,4.419-5.8,12.077,12.077,0,0,1,6.77-1.623,19.853,19.853,0,0,1,5.311.81,1.011,1.011,0,0,1,.84,1.155,18.689,18.689,0,0,1-2.428,8.409,9.938,9.938,0,0,1-7.922,4.883,19.839,19.839,0,0,1-6.17-.4v6.678c4.638.437,7.588,2.824,8.592,7.5.3-.032.611-.053.916-.1a3.7,3.7,0,0,1,4.334,2.916c.01.054.02.109.028.163A3.968,3.968,0,0,1,157.015,143q-8,1.733-16,3.44c-1.464.311-2.927.683-4.409.849a10.173,10.173,0,0,1-7.491-2.19c-.611-.465-1.185-.976-1.79-1.449a8.774,8.774,0,0,0-3.781-1.7.682.682,0,0,0-.759.261,3.053,3.053,0,0,1-3,1.072c-1.567-.245-3.131-.518-4.693-.792-.706-.124-1.092-.6-1-1.164a1.055,1.055,0,0,1,1.223-.857,1.01,1.01,0,0,1,.123.029c1.478.245,2.958.49,4.436.743,1.035.177,1.524-.14,1.7-1.166q.919-5.466,1.82-10.934c.1-.637.231-1.27.311-1.909a1.133,1.133,0,0,0-.77-1.4,1.149,1.149,0,0,0-.278-.045c-1.643-.317-3.291-.608-4.936-.915a2.691,2.691,0,0,1-.651-.18.961.961,0,0,1-.494-1.192,1.015,1.015,0,0,1,1.2-.673c1.544.28,3.087.559,4.627.854a7.783,7.783,0,0,1,1.514.385,2.9,2.9,0,0,1,1.656,1.85.561.561,0,0,0,.524.459,12.468,12.468,0,0,1,5.02,1.505,24.418,24.418,0,0,1,2.431,1.8,9.132,9.132,0,0,0,3.223,1.785.591.591,0,0,0,.512-.131,8.711,8.711,0,0,1,6.432-3.36,2.348,2.348,0,0,0,.3-.049M123.679,139.8a18.488,18.488,0,0,1,2.988,1.109,35.377,35.377,0,0,1,3.623,2.547,8.328,8.328,0,0,0,6.981,1.716c5.117-1.061,10.222-2.186,15.331-3.286,1.346-.29,2.692-.557,4.037-.881a1.92,1.92,0,0,0,1.372-2.278,1.7,1.7,0,0,0-1.9-1.455,1.579,1.579,0,0,0-.158.029c-2.871.366-5.745.7-8.612,1.09a23.746,23.746,0,0,0-4.628.761,2.2,2.2,0,0,1-1.035.042q-4.231-.685-8.456-1.413c-.713-.122-1.062-.589-.949-1.188a1.03,1.03,0,0,1,1.2-.825c.037.007.075.017.111.027l8.147,1.358a1.257,1.257,0,0,0,1.547-.876,1.178,1.178,0,0,0,.033-.159,1.265,1.265,0,0,0-.918-1.535,1.226,1.226,0,0,0-.213-.035c-.927-.166-1.852-.351-2.786-.454a13.167,13.167,0,0,1-7.868-3.5,9.5,9.5,0,0,0-5.928-2.218ZM160.57,109a1.257,1.257,0,0,0-.216-.1,17.432,17.432,0,0,0-5.611-.425,8.256,8.256,0,0,0-4.423,1.576c-2.474,1.924-3.359,4.673-3.985,7.7.262-.176.42-.276.573-.385l7.585-5.4a4.574,4.574,0,0,1,.518-.349.985.985,0,0,1,1.262.289.971.971,0,0,1-.113,1.326,3.938,3.938,0,0,1-.455.35q-3.876,2.764-7.753,5.527c-.117.084-.225.181-.4.319a16.1,16.1,0,0,0,4.414.207,7.924,7.924,0,0,0,5.811-2.917A15.115,15.115,0,0,0,160.574,109Zm-17.936,10.429c-.222-.166-.329-.249-.44-.329l-7.836-5.59a2.8,2.8,0,0,1-.408-.324,1,1,0,0,1,1.143-1.6,3.209,3.209,0,0,1,.484.311q3.772,2.683,7.542,5.37c.195.139.389.275.677.478a15.159,15.159,0,0,0-1.946-5.47,7.674,7.674,0,0,0-5.211-3.616,14.141,14.141,0,0,0-4.426-.151c-.874.1-1.741.265-2.632.4a17.378,17.378,0,0,0,1.723,6.142,7.781,7.781,0,0,0,4.1,3.924,13.671,13.671,0,0,0,7.23.449Zm9.982,16.253a2.3,2.3,0,0,0,0-.268,2.642,2.642,0,0,0-.058-.311,6.489,6.489,0,0,0-4.4-4.776,11.683,11.683,0,0,0-4.2-.334,6.45,6.45,0,0,0-4.226,1.7,3.376,3.376,0,0,0-.287.333c1.151.2,2.233.368,3.307.575a3.105,3.105,0,0,1,2.551,2.692,9.751,9.751,0,0,1,.009,1.3Z" transform="translate(-17144.865 -8853.346)"/>
    <path id="Path_17" data-name="Path 17" d="M144.022,127.924v-6.557c-1.656.12-3.286.327-4.917.333a10.366,10.366,0,0,1-10.239-7.106,20.534,20.534,0,0,1-1.358-6.047c-.067-.841.161-1.181.983-1.406a18.73,18.73,0,0,1,8.075-.56,10.024,10.024,0,0,1,7.886,6.3c.207.459.385.925.621,1.507.1-.26.161-.428.226-.593a11.2,11.2,0,0,1,4.419-5.8,12.077,12.077,0,0,1,6.77-1.623,19.853,19.853,0,0,1,5.311.81,1.011,1.011,0,0,1,.84,1.155,18.689,18.689,0,0,1-2.428,8.409,9.938,9.938,0,0,1-7.922,4.883,19.839,19.839,0,0,1-6.17-.4v6.678c4.638.437,7.588,2.824,8.592,7.5.3-.032.611-.053.916-.1a3.7,3.7,0,0,1,4.334,2.916c.01.054.02.109.028.163A3.968,3.968,0,0,1,157.015,143q-8,1.733-16,3.44c-1.464.311-2.927.683-4.409.849a10.173,10.173,0,0,1-7.491-2.19c-.611-.465-1.185-.976-1.79-1.449a8.774,8.774,0,0,0-3.781-1.7.682.682,0,0,0-.759.261,3.053,3.053,0,0,1-3,1.072c-1.567-.245-3.131-.518-4.693-.792-.706-.124-1.092-.6-1-1.164a1.055,1.055,0,0,1,1.223-.857,1.01,1.01,0,0,1,.123.029c1.478.245,2.958.49,4.436.743,1.035.177,1.524-.14,1.7-1.166q.919-5.466,1.82-10.934c.1-.637.231-1.27.311-1.909a1.133,1.133,0,0,0-.77-1.4,1.149,1.149,0,0,0-.278-.045c-1.643-.317-3.291-.608-4.936-.915a2.691,2.691,0,0,1-.651-.18.961.961,0,0,1-.494-1.192,1.015,1.015,0,0,1,1.2-.673c1.544.28,3.087.559,4.627.854a7.783,7.783,0,0,1,1.514.385,2.9,2.9,0,0,1,1.656,1.85.561.561,0,0,0,.524.459,12.468,12.468,0,0,1,5.02,1.505,24.418,24.418,0,0,1,2.431,1.8,9.132,9.132,0,0,0,3.223,1.785.591.591,0,0,0,.512-.131,8.711,8.711,0,0,1,6.432-3.36A2.348,2.348,0,0,0,144.022,127.924ZM123.679,139.8a18.488,18.488,0,0,1,2.988,1.109,35.377,35.377,0,0,1,3.623,2.547,8.328,8.328,0,0,0,6.981,1.716c5.117-1.061,10.222-2.186,15.331-3.286,1.346-.29,2.692-.557,4.037-.881a1.92,1.92,0,0,0,1.372-2.278,1.7,1.7,0,0,0-1.9-1.455,1.579,1.579,0,0,0-.158.029c-2.871.366-5.745.7-8.612,1.09a23.746,23.746,0,0,0-4.628.761,2.2,2.2,0,0,1-1.035.042q-4.231-.685-8.456-1.413c-.713-.122-1.062-.589-.949-1.188a1.03,1.03,0,0,1,1.2-.825c.037.007.075.017.111.027l8.147,1.358a1.257,1.257,0,0,0,1.547-.876,1.178,1.178,0,0,0,.033-.159,1.265,1.265,0,0,0-.918-1.535,1.226,1.226,0,0,0-.213-.035c-.927-.166-1.852-.351-2.786-.454a13.167,13.167,0,0,1-7.868-3.5,9.5,9.5,0,0,0-5.928-2.218ZM160.57,109a1.257,1.257,0,0,0-.216-.1,17.432,17.432,0,0,0-5.611-.425,8.256,8.256,0,0,0-4.423,1.576c-2.474,1.924-3.359,4.673-3.985,7.7.262-.176.42-.276.573-.385l7.585-5.4a4.574,4.574,0,0,1,.518-.349.985.985,0,0,1,1.262.289.971.971,0,0,1-.113,1.326,3.938,3.938,0,0,1-.455.35q-3.876,2.764-7.753,5.527c-.117.084-.225.181-.4.319a16.1,16.1,0,0,0,4.414.207,7.924,7.924,0,0,0,5.811-2.917A15.115,15.115,0,0,0,160.574,109Zm-17.936,10.429c-.222-.166-.329-.249-.44-.329l-7.836-5.59a2.8,2.8,0,0,1-.408-.324,1,1,0,0,1,1.143-1.6,3.209,3.209,0,0,1,.484.311q3.772,2.683,7.542,5.37c.195.139.389.275.677.478a15.159,15.159,0,0,0-1.946-5.47,7.674,7.674,0,0,0-5.211-3.616,14.141,14.141,0,0,0-4.426-.151c-.874.1-1.741.265-2.632.4a17.378,17.378,0,0,0,1.723,6.142,7.781,7.781,0,0,0,4.1,3.924,13.671,13.671,0,0,0,7.23.449Zm9.982,16.253a2.3,2.3,0,0,0,0-.268,2.642,2.642,0,0,0-.058-.311,6.489,6.489,0,0,0-4.4-4.776,11.683,11.683,0,0,0-4.2-.334,6.45,6.45,0,0,0-4.226,1.7,3.376,3.376,0,0,0-.287.333c1.151.2,2.233.368,3.307.575a3.105,3.105,0,0,1,2.551,2.692,9.751,9.751,0,0,1,.009,1.3Z" transform="translate(-17144.865 -8853.346)" fill="none" stroke="#f3f1ef" stroke-width="0.5"/>
  </g>
</svg>
