<svg id="Rewards_Icon_5" data-name="Rewards Icon_5" xmlns="http://www.w3.org/2000/svg" width="101" height="101" viewBox="0 0 101 101">
  <circle id="Oval" cx="50.5" cy="50.5" r="50.5" fill="#fff"/>
  <g id="Group" transform="translate(15.545 31.5)">
    <path id="Fill_103" data-name="Fill 103" d="M50.3,37.041h0a4.179,4.179,0,0,1-4.034-2.985.838.838,0,0,0-.98-.714h-.013c-3.759.009-7.705.014-11.729.014-3.485,0-7.158,0-10.917-.01-.57,0-.836.1-1,.7a4.173,4.173,0,0,1-4.038,3h-.033a4.218,4.218,0,0,1-2.516-.847,4.145,4.145,0,0,1-1.514-2.206c-.155-.544-.4-.643-.828-.643h-.073c-.4.011-.832.016-1.365.016-.313,0-.629,0-.949,0s-.662,0-1,0V28.514H4.9q-.938,0-1.875,0c-.69,0-1.107-.325-1.115-.857a.789.789,0,0,1,.217-.579,1.205,1.205,0,0,1,.874-.3q1.233,0,2.466,0H9.244v-5.87A10.657,10.657,0,0,1,3.8,18.547,10.463,10.463,0,0,1,9.624.049,9.271,9.271,0,0,1,10.58,0a10.427,10.427,0,0,1,9.062,5.5,1.2,1.2,0,0,0,1.245.748H20.9c4.005-.014,7.915-.016,11.211-.016h9.53v6.055h5.676c1.014,0,2.352,0,3.715-.014h.017a1.346,1.346,0,0,1,1.1.487c1.247,1.381,2.522,2.779,3.755,4.132,1.259,1.381,2.561,2.809,3.834,4.22a1.48,1.48,0,0,1,.4.867c.023,3.068.02,6.185.017,9.2v1.725a1.957,1.957,0,0,1-.022.247c-.006.051-.013.105-.02.168H54.593l-.091.285c-.043.132-.082.253-.12.375a4.281,4.281,0,0,1-4.042,3.06ZM17.582,30.218a2.551,2.551,0,0,0-1.822.751,2.5,2.5,0,0,0-.732,1.792,2.567,2.567,0,0,0,2.52,2.543h.031a2.5,2.5,0,0,0,1.789-.752,2.556,2.556,0,0,0,.744-1.811,2.507,2.507,0,0,0-2.51-2.524Zm32.73,0a2.56,2.56,0,0,0-2.568,2.5A2.578,2.578,0,0,0,50.3,35.3a2.554,2.554,0,0,0,2.534-2.524,2.505,2.505,0,0,0-2.469-2.562ZM12.124,31.6c.252,0,.458.006.649.018q.062,0,.118,0a.788.788,0,0,0,.8-.579,4,4,0,0,1,3.854-2.556h.047a4.039,4.039,0,0,1,3.877,2.56.826.826,0,0,0,.9.571h.014c3.656-.009,7.374-.009,10.97-.009h5.809c.154,0,.31-.015.46-.029.078-.008.154-.015.231-.02V8.025H20.7c0,.036-.005.066-.008.091a.322.322,0,0,0,0,.1,10.434,10.434,0,0,1-9.123,12.652c-.517.046-.555.326-.553.715.01,2.044.009,4.121.008,6.13q0,1.022,0,2.044v1.853h.1c.17,0,.332,0,.489,0C11.788,31.6,11.958,31.6,12.124,31.6ZM41.691,14.025h0V31.612l1.015,0h.007l.979,0c.572,0,1.328,0,2.093-.023a.808.808,0,0,0,.535-.429,4.175,4.175,0,0,1,3.943-2.672h.03a4.134,4.134,0,0,1,3.976,2.679c.083.187.312.416.471.42.681.021,1.351.023,1.858.023l.849,0h.022l.876,0c.012-.056.025-.1.035-.146a.867.867,0,0,0,.037-.2l0-1.37c0-2.4.008-4.872-.014-7.309a1.439,1.439,0,0,0-.4-.79c-1.822-2.02-4.228-4.677-6.681-7.317a1.508,1.508,0,0,0-.97-.434c-.99-.016-2.049-.023-3.435-.023l-1.7,0H45.2l-1.717,0ZM10.547,1.752H10.5a8.742,8.742,0,1,0-.021,17.484h.076a8.742,8.742,0,0,0-.013-17.484Z" transform="translate(9.553 0)" fill="#23282a"/>
    <path id="Fill_105" data-name="Fill 105" d="M10.31,0Q8.032,0,5.753,0T1.195,0C.413,0,.012.29,0,.842s.418.893,1.159.894q4.594.006,9.186,0c.739,0,1.173-.348,1.16-.894S11.1,0,10.31,0" transform="translate(0 20.106)" fill="#23282a"/>
    <path id="Fill_107" data-name="Fill 107" d="M.94,1.739H3.254c.821,0,1.64,0,2.46,0,.564,0,.96-.238.98-.821C6.717.292,6.3.013,5.716.009Q3.331-.009.945.009A.834.834,0,0,0,0,.881c0,.587.367.858.94.858" transform="translate(1.806 11.895)" fill="#23282a"/>
    <path id="Fill_109" data-name="Fill 109" d="M1.935.052c-.144-.1-.42-.018-.637-.018v0c-.19,0-.441-.078-.563.015C.439.272.012.569,0,.852a1.157,1.157,0,0,0,.662.85A2.053,2.053,0,0,0,2,1.694,1.173,1.173,0,0,0,2.619.816c.005-.256-.4-.564-.684-.764" transform="translate(7.737 26.754)" fill="#23282a"/>
    <path id="Fill_111" data-name="Fill 111" d="M5.641,7.465H1.735V4.315c0-1.131.011-2.264-.009-3.4A.832.832,0,0,0,.831,0,.767.767,0,0,0,.009.823q-.017,3.759,0,7.519a.772.772,0,0,0,.8.843c1.712.021,3.422.025,5.132-.006A.744.744,0,0,0,6.694,8.3c-.039-.645-.486-.832-1.053-.834" transform="translate(19.491 2.699)" fill="#23282a"/>
  </g>
</svg>
